<?xml version="1.0" encoding="utf-8"?>
<!-- Generator: Adobe Illustrator 26.3.1, SVG Export Plug-In . SVG Version: 6.00 Build 0)  -->
<svg version="1.1" id="Layer_1" xmlns="http://www.w3.org/2000/svg" xmlns:xlink="http://www.w3.org/1999/xlink" x="0px" y="0px"
	 viewBox="0 0 252 252" style="enable-background:new 0 0 252 252;" xml:space="preserve">
<g id="Layer_2_00000133524093746448558160000006687169483815644595_">
</g>
<g id="Fixed">
	<g>
		<path d="M119.8,22.9c4.3,0,8.6,0,12.9,0c0.6,0.1,1.2,0.3,1.7,0.3c9.4,0.7,18.6,2.5,27.3,6c36.2,14.4,58.2,40.7,65.8,79
			c0.7,3.7,1,7.4,1.6,11.1c0,4.3,0,8.6,0,12.9c-0.3,2.4-0.6,4.9-0.9,7.3c-2.9,20.4-10.7,38.6-24.5,53.8
			c-26.6,29.3-59.8,40.5-98.7,33c-25.1-4.9-45.4-18.2-60.8-38.6c-17.6-23.4-24-49.9-19.4-78.8c3.7-23.1,14.5-42.7,31.6-58.6
			c14.8-13.7,32.2-22.4,52.1-25.8C112.2,23.8,116,23.4,119.8,22.9z M100.4,168.6c0-28.6,0-57.1,0-85.6c-5.7,0-11.3,0-16.9,0
			c0,28.6,0,57,0,85.6C89.2,168.6,94.7,168.6,100.4,168.6z M169,83c-17.2,0-34.2,0-51.2,0c0,5.7,0,11.3,0,16.9c17.1,0,34.2,0,51.2,0
			C169,94.2,169,88.7,169,83z M117.8,168.6c17.2,0,34.2,0,51.2,0c0-5.7,0-11.3,0-16.9c-17.2,0-34.2,0-51.2,0
			C117.8,157.3,117.8,162.9,117.8,168.6z M117.8,134.2c17.2,0,34.1,0,51.2,0c0-5.7,0-11.3,0-16.8c-17.1,0-34.1,0-51.2,0
			C117.8,123,117.8,128.5,117.8,134.2z"/>
	</g>
</g>
</svg>
